<svg width="1059" height="806" viewBox="0 0 1059 806" fill="none" xmlns="http://www.w3.org/2000/svg">
<g opacity="0.4">
<path d="M72.8777 89.748H60.3917C59.8612 89.748 59.4312 90.1783 59.4312 90.7089V108.005C59.4312 108.536 59.8612 108.966 60.3917 108.966H72.8777C73.4082 108.966 73.8382 108.536 73.8382 108.005V90.7089C73.8382 90.1783 73.4082 89.748 72.8777 89.748Z" stroke="#666666"/>
<path d="M73.8382 88.7871H61.3521C60.8217 88.7871 60.3917 89.2173 60.3917 89.748V107.044C60.3917 107.575 60.8217 108.005 61.3521 108.005H73.8382C74.3686 108.005 74.7987 107.575 74.7987 107.044V89.748C74.7987 89.2173 74.3686 88.7871 73.8382 88.7871Z" stroke="#666666"/>
<path d="M74.7987 87.8262H62.3126C61.7822 87.8262 61.3521 88.2564 61.3521 88.7871V106.083C61.3521 106.614 61.7822 107.044 62.3126 107.044H74.7987C75.3291 107.044 75.7591 106.614 75.7591 106.083V88.7871C75.7591 88.2564 75.3291 87.8262 74.7987 87.8262Z" stroke="#666666"/>
<path d="M88.2452 293.938C94.8758 293.938 100.251 288.561 100.251 281.927C100.251 275.294 94.8758 269.916 88.2452 269.916C81.6146 269.916 76.2394 275.294 76.2394 281.927C76.2394 288.561 81.6146 293.938 88.2452 293.938Z" stroke="#666666"/>
<path d="M83.1516 287.023C89.7156 293.59 97.3172 296.632 100.13 293.818C102.944 291.003 99.9028 283.398 93.3388 276.831C86.7748 270.264 79.1732 267.222 76.36 270.037C73.5469 272.851 76.5876 280.456 83.1516 287.023Z" stroke="#666666"/>
<path d="M93.3388 287.023C99.9028 280.456 102.944 272.851 100.13 270.037C97.3172 267.222 89.7156 270.264 83.1516 276.831C76.5876 283.398 73.5469 291.003 76.36 293.818C79.1732 296.632 86.7748 293.59 93.3388 287.023Z" stroke="#666666"/>
<path d="M88.2452 283.369C89.0409 283.369 89.6859 282.723 89.6859 281.927C89.6859 281.131 89.0409 280.486 88.2452 280.486C87.4495 280.486 86.8045 281.131 86.8045 281.927C86.8045 282.723 87.4495 283.369 88.2452 283.369Z" fill="#666666" stroke="#666666"/>
<path d="M61.3521 474.106H57.5103V488.52H61.3521V474.106Z" stroke="#666666"/>
<path d="M52.2277 488.52H66.6347L61.8324 502.933H57.03L52.2277 488.52Z" stroke="#666666"/>
<path d="M59.4312 471.224C60.4921 471.224 61.3521 470.363 61.3521 469.302C61.3521 468.241 60.4921 467.38 59.4312 467.38C58.3703 467.38 57.5103 468.241 57.5103 469.302C57.5103 470.363 58.3703 471.224 59.4312 471.224Z" stroke="#666666"/>
<path d="M92.0871 618.241H84.4033C83.8729 618.241 83.4429 618.671 83.4429 619.202V631.693C83.4429 632.224 83.8729 632.654 84.4033 632.654H92.0871C92.6175 632.654 93.0475 632.224 93.0475 631.693V619.202C93.0475 618.671 92.6175 618.241 92.0871 618.241Z" stroke="#666666"/>
<path d="M94.008 630.252H82.4824V642.263H94.008V630.252Z" stroke="#666666"/>
<path d="M84.4033 637.458H92.0871" stroke="#666666"/>
<path d="M100.731 187.279C100.731 186.483 100.086 185.838 99.2906 185.838C98.4949 185.838 97.8499 186.483 97.8499 187.279V208.419C97.8499 209.215 98.4949 209.86 99.2906 209.86C100.086 209.86 100.731 209.215 100.731 208.419V187.279Z" stroke="#666666"/>
<path d="M99.2906 182.955C100.351 182.955 101.211 182.094 101.211 181.033C101.211 179.972 100.351 179.111 99.2906 179.111C98.2297 179.111 97.3696 179.972 97.3696 181.033C97.3696 182.094 98.2297 182.955 99.2906 182.955Z" stroke="#666666"/>
<path d="M97.8499 195.447H100.731" stroke="#666666"/>
<path d="M87.2847 714.33H69.9963C69.4659 714.33 69.0359 714.761 69.0359 715.291V717.213C69.0359 717.744 69.4659 718.174 69.9963 718.174H87.2847C87.8152 718.174 88.2452 717.744 88.2452 717.213V715.291C88.2452 714.761 87.8152 714.33 87.2847 714.33Z" stroke="#666666"/>
<path d="M82.4824 710.967H74.7987C74.2682 710.967 73.8382 711.397 73.8382 711.928V717.213C73.8382 717.744 74.2682 718.174 74.7987 718.174H82.4824C83.0128 718.174 83.4429 717.744 83.4429 717.213V711.928C83.4429 711.397 83.0128 710.967 82.4824 710.967Z" stroke="#666666"/>
<path d="M83.4429 714.33L88.2452 709.526" stroke="#666666"/>
<path d="M88.2452 710.487C88.7756 710.487 89.2057 710.056 89.2057 709.526C89.2057 708.995 88.7756 708.565 88.2452 708.565C87.7147 708.565 87.2847 708.995 87.2847 709.526C87.2847 710.056 87.7147 710.487 88.2452 710.487Z" stroke="#666666"/>
</g>
<g opacity="0.3">
<path d="M327.257 120.066C336.462 120.066 343.925 112.6 343.925 103.39C343.925 94.1805 336.462 86.7145 327.257 86.7145C318.051 86.7145 310.588 94.1805 310.588 103.39C310.588 112.6 318.051 120.066 327.257 120.066Z" stroke="#777777"/>
<path d="M327.257 86.7145V97.8317" stroke="#777777"/>
<path d="M327.257 108.949V120.066" stroke="#777777"/>
<path d="M310.588 103.39H321.7" stroke="#777777"/>
<path d="M332.813 103.39H343.925" stroke="#777777"/>
<path d="M324.478 95.0525H330.035L327.257 89.4938L324.478 95.0525Z" stroke="#777777"/>
<path d="M343.925 325.735H310.588V330.182H343.925V325.735Z" stroke="#777777"/>
<path d="M321.7 325.735V303.501" stroke="#777777"/>
<path d="M321.7 303.501C325.383 303.501 328.368 300.514 328.368 296.83C328.368 293.146 325.383 290.16 321.7 290.16C318.018 290.16 315.033 293.146 315.033 296.83C315.033 300.514 318.018 303.501 321.7 303.501Z" stroke="#777777"/>
<path d="M321.7 292.383C324.155 292.383 326.145 290.392 326.145 287.937C326.145 285.481 324.155 283.49 321.7 283.49C319.246 283.49 317.255 285.481 317.255 287.937C317.255 290.392 319.246 292.383 321.7 292.383Z" stroke="#777777"/>
<path d="M324.478 282.378H318.922V293.495H324.478V282.378Z" stroke="#777777"/>
<path d="M293.92 561.977C301.591 561.977 307.81 555.755 307.81 548.08C307.81 540.405 301.591 534.183 293.92 534.183C286.248 534.183 280.029 540.405 280.029 548.08C280.029 555.755 286.248 561.977 293.92 561.977Z" stroke="#777777"/>
<path d="M293.92 554.75C301.591 554.75 307.81 551.764 307.81 548.08C307.81 544.396 301.591 541.41 293.92 541.41C286.248 541.41 280.029 544.396 280.029 548.08C280.029 551.764 286.248 554.75 293.92 554.75Z" stroke="#777777"/>
<path d="M293.92 561.977C297.602 561.977 300.587 555.755 300.587 548.08C300.587 540.405 297.602 534.183 293.92 534.183C290.237 534.183 287.252 540.405 287.252 548.08C287.252 555.755 290.237 561.977 293.92 561.977Z" stroke="#777777"/>
<path d="M366.149 692.604H355.037C351.969 692.604 349.481 695.093 349.481 698.163C349.481 701.233 351.969 703.721 355.037 703.721H366.149C369.218 703.721 371.706 701.233 371.706 698.163C371.706 695.093 369.218 692.604 366.149 692.604Z" stroke="#777777"/>
<path opacity="0.3" d="M360.593 698.163C360.593 695.093 358.106 692.604 355.037 692.604C351.969 692.604 349.481 695.093 349.481 698.163C349.481 701.233 351.969 703.721 355.037 703.721C358.106 703.721 360.593 701.233 360.593 698.163Z" fill="#777777" stroke="#777777"/>
<path d="M371.706 698.163C371.706 695.093 369.218 692.604 366.15 692.604C363.081 692.604 360.593 695.093 360.593 698.163C360.593 701.233 363.081 703.721 366.15 703.721C369.218 703.721 371.706 701.233 371.706 698.163Z" stroke="#777777"/>
<path d="M356.248 695.908V700.272H355.736L353.359 696.846H353.316V700.272H352.788V695.908H353.299L355.685 699.343H355.728V695.908H356.248Z" fill="#777777"/>
<path d="M356.248 695.908H356.748V695.408H356.248V695.908ZM356.248 700.272V700.772H356.748V700.272H356.248ZM355.736 700.272L355.326 700.557L355.475 700.772H355.736V700.272ZM353.359 696.846L353.769 696.561L353.62 696.346H353.359V696.846ZM353.316 696.846V696.346H352.816V696.846H353.316ZM353.316 700.272V700.772H353.816V700.272H353.316ZM352.788 700.272H352.288V700.772H352.788V700.272ZM352.788 695.908V695.408H352.288V695.908H352.788ZM353.299 695.908L353.71 695.623L353.56 695.408H353.299V695.908ZM355.685 699.343L355.275 699.628L355.424 699.843H355.685V699.343ZM355.728 699.343V699.843H356.228V699.343H355.728ZM355.728 695.908V695.408H355.228V695.908H355.728ZM356.248 695.908H355.748V700.272H356.248H356.748V695.908H356.248ZM356.248 700.272V699.772H355.736V700.272V700.772H356.248V700.272ZM355.736 700.272L356.147 699.987L353.769 696.561L353.359 696.846L352.948 697.131L355.326 700.557L355.736 700.272ZM353.359 696.846V696.346H353.316V696.846V697.346H353.359V696.846ZM353.316 696.846H352.816V700.272H353.316H353.816V696.846H353.316ZM353.316 700.272V699.772H352.788V700.272V700.772H353.316V700.272ZM352.788 700.272H353.288V695.908H352.788H352.288V700.272H352.788ZM352.788 695.908V696.408H353.299V695.908V695.408H352.788V695.908ZM353.299 695.908L352.888 696.193L355.275 699.628L355.685 699.343L356.096 699.057L353.71 695.623L353.299 695.908ZM355.685 699.343V699.843H355.728V699.343V698.843H355.685V699.343ZM355.728 699.343H356.228V695.908H355.728H355.228V699.343H355.728ZM355.728 695.908V696.408H356.248V695.908V695.408H355.728V695.908Z" fill="#777777"/>
<path d="M366.286 696.999C366.261 696.783 366.157 696.615 365.975 696.496C365.793 696.377 365.57 696.317 365.306 696.317C365.113 696.317 364.944 696.348 364.799 696.411C364.656 696.473 364.543 696.559 364.462 696.669C364.383 696.778 364.343 696.902 364.343 697.042C364.343 697.158 364.371 697.258 364.426 697.342C364.483 697.424 364.555 697.493 364.643 697.549C364.732 697.603 364.824 697.647 364.92 697.683C365.017 697.717 365.106 697.745 365.187 697.766L365.63 697.885C365.744 697.915 365.87 697.956 366.009 698.009C366.15 698.062 366.284 698.133 366.412 698.224C366.541 698.314 366.648 698.429 366.732 698.569C366.815 698.71 366.857 698.883 366.857 699.087C366.857 699.323 366.795 699.536 366.672 699.726C366.55 699.917 366.371 700.068 366.135 700.18C365.901 700.292 365.616 700.348 365.281 700.348C364.968 700.348 364.697 700.298 364.469 700.197C364.241 700.096 364.063 699.956 363.932 699.775C363.803 699.595 363.729 699.385 363.712 699.147H364.258C364.272 699.312 364.327 699.448 364.424 699.556C364.522 699.662 364.646 699.742 364.795 699.794C364.945 699.846 365.107 699.871 365.281 699.871C365.482 699.871 365.663 699.838 365.824 699.773C365.984 699.706 366.112 699.614 366.205 699.496C366.299 699.377 366.346 699.238 366.346 699.079C366.346 698.934 366.305 698.816 366.224 698.725C366.143 698.634 366.037 698.56 365.905 698.503C365.773 698.446 365.63 698.397 365.477 698.354L364.94 698.201C364.599 698.103 364.329 697.963 364.13 697.781C363.931 697.599 363.832 697.361 363.832 697.067C363.832 696.823 363.898 696.61 364.03 696.428C364.163 696.245 364.342 696.103 364.567 696.002C364.793 695.9 365.045 695.848 365.323 695.848C365.604 695.848 365.854 695.899 366.073 696C366.292 696.099 366.465 696.236 366.593 696.409C366.722 696.582 366.79 696.779 366.798 696.999H366.286Z" fill="#777777"/>
<path d="M366.286 696.999L365.79 697.058L365.842 697.499H366.286V696.999ZM365.975 696.496L365.701 696.914H365.701L365.975 696.496ZM364.799 696.411L364.601 695.952L364.599 695.953L364.799 696.411ZM364.462 696.669L364.06 696.371L364.058 696.375L364.462 696.669ZM364.426 697.342L364.009 697.618L364.015 697.626L364.426 697.342ZM364.643 697.549L364.377 697.972L364.382 697.975L364.643 697.549ZM364.92 697.683L364.748 698.152L364.754 698.154L364.92 697.683ZM365.187 697.766L365.317 697.283L365.314 697.283L365.187 697.766ZM365.63 697.885L365.5 698.368L365.503 698.369L365.63 697.885ZM366.009 698.009L365.833 698.477L365.834 698.477L366.009 698.009ZM366.412 698.224L366.122 698.632L366.127 698.635L366.412 698.224ZM366.732 698.569L367.161 698.313L367.161 698.313L366.732 698.569ZM366.672 699.726L366.253 699.454L366.251 699.456L366.672 699.726ZM366.135 700.18L365.92 699.729L365.919 699.729L366.135 700.18ZM364.469 700.197L364.266 700.654L364.267 700.655L364.469 700.197ZM363.932 699.775L363.525 700.067L363.527 700.069L363.932 699.775ZM363.712 699.147V698.647H363.175L363.214 699.182L363.712 699.147ZM364.258 699.147L364.756 699.104L364.717 698.647H364.258V699.147ZM364.424 699.556L364.051 699.889L364.056 699.894L364.424 699.556ZM364.795 699.794L364.629 700.266L364.634 700.268L364.795 699.794ZM365.824 699.773L366.012 700.236L366.016 700.235L365.824 699.773ZM366.205 699.496L366.597 699.807L366.598 699.805L366.205 699.496ZM366.224 698.725L366.598 698.392H366.598L366.224 698.725ZM365.905 698.503L365.707 698.963H365.707L365.905 698.503ZM365.477 698.354L365.339 698.835L365.343 698.836L365.477 698.354ZM364.94 698.201L364.801 698.681L364.802 698.681L364.94 698.201ZM364.13 697.781L363.793 698.15L363.793 698.15L364.13 697.781ZM364.03 696.428L363.626 696.134L363.625 696.134L364.03 696.428ZM364.567 696.002L364.772 696.458L364.773 696.457L364.567 696.002ZM366.073 696L365.864 696.454L365.866 696.455L366.073 696ZM366.593 696.409L366.191 696.706L366.192 696.708L366.593 696.409ZM366.798 696.999V697.499H367.314L367.297 696.983L366.798 696.999ZM366.286 696.999L366.783 696.94C366.74 696.578 366.555 696.278 366.249 696.078L365.975 696.496L365.701 696.914C365.759 696.952 365.782 696.989 365.79 697.058L366.286 696.999ZM365.975 696.496L366.249 696.078C365.97 695.895 365.647 695.817 365.306 695.817V696.317V696.817C365.494 696.817 365.617 696.859 365.701 696.914L365.975 696.496ZM365.306 696.317V695.817C365.06 695.817 364.821 695.857 364.601 695.952L364.799 696.411L364.997 696.87C365.067 696.84 365.166 696.817 365.306 696.817V696.317ZM364.799 696.411L364.599 695.953C364.388 696.045 364.201 696.181 364.06 696.371L364.462 696.669L364.864 696.966C364.886 696.937 364.923 696.902 364.999 696.869L364.799 696.411ZM364.462 696.669L364.058 696.375C363.914 696.572 363.843 696.8 363.843 697.042H364.343H364.843C364.843 697.005 364.851 696.984 364.867 696.963L364.462 696.669ZM364.343 697.042H363.843C363.843 697.24 363.891 697.44 364.009 697.618L364.426 697.342L364.843 697.066C364.845 697.07 364.846 697.072 364.846 697.071C364.845 697.069 364.843 697.06 364.843 697.042H364.343ZM364.426 697.342L364.015 697.626C364.111 697.766 364.234 697.882 364.377 697.972L364.643 697.549L364.91 697.125C364.877 697.105 364.855 697.083 364.838 697.058L364.426 697.342ZM364.643 697.549L364.382 697.975C364.498 698.046 364.62 698.105 364.748 698.152L364.92 697.683L365.093 697.214C365.027 697.19 364.965 697.159 364.905 697.122L364.643 697.549ZM364.92 697.683L364.754 698.154C364.861 698.192 364.963 698.224 365.06 698.25L365.187 697.766L365.314 697.283C365.249 697.265 365.173 697.242 365.087 697.211L364.92 697.683ZM365.187 697.766L365.057 698.249L365.5 698.368L365.63 697.885L365.76 697.403L365.317 697.283L365.187 697.766ZM365.63 697.885L365.503 698.369C365.596 698.393 365.706 698.429 365.833 698.477L366.009 698.009L366.186 697.541C366.034 697.484 365.891 697.437 365.757 697.402L365.63 697.885ZM366.009 698.009L365.834 698.477C365.932 698.514 366.028 698.565 366.122 698.632L366.412 698.224L366.702 697.817C366.54 697.702 366.367 697.609 366.184 697.541L366.009 698.009ZM366.412 698.224L366.127 698.635C366.195 698.682 366.253 698.744 366.302 698.825L366.732 698.569L367.161 698.313C367.042 698.114 366.887 697.945 366.697 697.813L366.412 698.224ZM366.732 698.569L366.302 698.825C366.329 698.871 366.357 698.95 366.357 699.087H366.857H367.357C367.357 698.815 367.301 698.549 367.161 698.313L366.732 698.569ZM366.857 699.087H366.357C366.357 699.23 366.321 699.348 366.253 699.454L366.672 699.726L367.091 699.999C367.27 699.724 367.357 699.416 367.357 699.087H366.857ZM366.672 699.726L366.251 699.456C366.187 699.557 366.085 699.65 365.92 699.729L366.135 700.18L366.35 700.632C366.657 700.486 366.913 700.277 367.093 699.996L366.672 699.726ZM366.135 700.18L365.919 699.729C365.769 699.801 365.562 699.848 365.281 699.848V700.348V700.848C365.67 700.848 366.032 700.784 366.351 700.631L366.135 700.18ZM365.281 700.348V699.848C365.021 699.848 364.822 699.806 364.671 699.74L364.469 700.197L364.267 700.655C364.573 700.79 364.915 700.848 365.281 700.848V700.348ZM364.469 700.197L364.672 699.74C364.515 699.671 364.41 699.583 364.337 699.482L363.932 699.775L363.527 700.069C363.715 700.328 363.968 700.522 364.266 700.654L364.469 700.197ZM363.932 699.775L364.338 699.484C364.267 699.385 364.222 699.265 364.211 699.111L363.712 699.147L363.214 699.182C363.237 699.506 363.338 699.805 363.525 700.067L363.932 699.775ZM363.712 699.147V699.647H364.258V699.147V698.647H363.712V699.147ZM364.258 699.147L363.76 699.19C363.782 699.446 363.873 699.689 364.051 699.889L364.424 699.556L364.797 699.222C364.782 699.206 364.762 699.177 364.756 699.104L364.258 699.147ZM364.424 699.556L364.056 699.894C364.214 700.067 364.41 700.189 364.629 700.266L364.795 699.794L364.961 699.323C364.882 699.295 364.83 699.258 364.792 699.217L364.424 699.556ZM364.795 699.794L364.634 700.268C364.841 700.338 365.057 700.371 365.281 700.371V699.871V699.371C365.157 699.371 365.05 699.353 364.956 699.321L364.795 699.794ZM365.281 699.871V700.371C365.536 700.371 365.783 700.33 366.012 700.236L365.824 699.773L365.635 699.31C365.544 699.347 365.428 699.371 365.281 699.371V699.871ZM365.824 699.773L366.016 700.235C366.242 700.141 366.443 700.001 366.597 699.807L366.205 699.496L365.814 699.185C365.78 699.227 365.726 699.272 365.632 699.311L365.824 699.773ZM366.205 699.496L366.598 699.805C366.765 699.593 366.846 699.344 366.846 699.079H366.346H365.846C365.846 699.131 365.833 699.161 365.812 699.187L366.205 699.496ZM366.346 699.079H366.846C366.846 698.836 366.775 698.592 366.598 698.392L366.224 698.725L365.851 699.057C365.849 699.055 365.847 699.053 365.845 699.049C365.844 699.046 365.843 699.044 365.843 699.044C365.842 699.043 365.846 699.053 365.846 699.079H366.346ZM366.224 698.725L366.598 698.392C366.46 698.238 366.29 698.124 366.102 698.044L365.905 698.503L365.707 698.963C365.784 698.996 365.827 699.03 365.851 699.057L366.224 698.725ZM365.905 698.503L366.102 698.044C365.948 697.977 365.783 697.92 365.61 697.872L365.477 698.354L365.343 698.836C365.477 698.873 365.598 698.916 365.707 698.963L365.905 698.503ZM365.477 698.354L365.614 697.873L365.077 697.72L364.94 698.201L364.802 698.681L365.339 698.835L365.477 698.354ZM364.94 698.201L365.078 697.72C364.788 697.637 364.594 697.528 364.467 697.412L364.13 697.781L363.793 698.15C364.063 698.398 364.409 698.568 364.801 698.681L364.94 698.201ZM364.13 697.781L364.467 697.412C364.382 697.334 364.332 697.235 364.332 697.067H363.832H363.332C363.332 697.487 363.48 697.864 363.793 698.15L364.13 697.781ZM363.832 697.067H364.332C364.332 696.919 364.37 696.811 364.434 696.722L364.03 696.428L363.625 696.134C363.426 696.409 363.332 696.727 363.332 697.067H363.832ZM364.03 696.428L364.434 696.722C364.512 696.615 364.62 696.526 364.772 696.458L364.567 696.002L364.362 695.546C364.065 695.679 363.815 695.874 363.626 696.134L364.03 696.428ZM364.567 696.002L364.773 696.457C364.927 696.388 365.107 696.348 365.323 696.348V695.848V695.348C364.982 695.348 364.659 695.411 364.361 695.546L364.567 696.002ZM365.323 695.848V696.348C365.544 696.348 365.721 696.388 365.864 696.454L366.073 696L366.283 695.546C365.988 695.41 365.665 695.348 365.323 695.348V695.848ZM366.073 696L365.866 696.455C366.017 696.523 366.119 696.609 366.191 696.706L366.593 696.409L366.995 696.112C366.811 695.862 366.567 695.675 366.28 695.545L366.073 696ZM366.593 696.409L366.192 696.708C366.259 696.797 366.294 696.895 366.298 697.015L366.798 696.999L367.297 696.983C367.287 696.663 367.185 696.367 366.994 696.11L366.593 696.409ZM366.798 696.999V696.499H366.286V696.999V697.499H366.798V696.999Z" fill="#777777"/>
<path d="M371.706 214.563C379.114 221.974 379.114 229.386 371.706 236.797C364.297 244.209 364.297 251.62 371.706 259.032C379.114 266.443 379.114 273.855 371.706 281.266" stroke="#777777"/>
<path d="M388.374 214.563C380.966 221.974 380.966 229.386 388.374 236.797C395.782 244.209 395.782 251.62 388.374 259.032C380.966 266.443 380.966 273.855 388.374 281.266" stroke="#777777"/>
<path d="M371.706 220.121H388.374" stroke="#777777"/>
<path d="M371.706 231.239H388.374" stroke="#777777"/>
<path d="M371.706 242.356H388.374" stroke="#777777"/>
<path d="M371.706 253.473H388.374" stroke="#777777"/>
<path d="M371.706 264.59H388.374" stroke="#777777"/>
<path d="M371.706 275.708H388.374" stroke="#777777"/>
</g>
<g opacity="0.25">
<path d="M202.428 63.2642V64.2017H196.002V63.2642H202.428ZM197.979 63.2642V69.8097H196.974V63.2642H197.979ZM200.485 63.2642H201.491V68.1904C201.491 68.3949 201.528 68.5483 201.602 68.6506C201.678 68.7529 201.772 68.8211 201.883 68.8551C201.997 68.8892 202.11 68.9063 202.224 68.9063C202.318 68.9063 202.413 68.8963 202.509 68.8765C202.609 68.8566 202.684 68.8381 202.735 68.8211V69.7586C202.65 69.7841 202.535 69.8125 202.39 69.8438C202.245 69.8779 202.07 69.8949 201.866 69.8949C201.465 69.8949 201.134 69.7685 200.873 69.5157C200.614 69.2628 200.485 68.8211 200.485 68.1904V63.2642Z" fill="#888888"/>
<path d="M223.71 148.394V149.175H218.596V148.394H223.71ZM223.326 140.581V141.362H218.397V140.581H223.326ZM222.218 144.757V145.034L218.71 149.175H218.198V148.436L221.245 144.892L218.198 141.334V140.581H218.71L222.218 144.757Z" fill="#888888"/>
<path d="M241.553 370.796C241.553 371.259 241.435 371.612 241.198 371.857C240.964 372.104 240.624 372.228 240.179 372.228C240.089 372.228 240.003 372.222 239.92 372.209C239.834 372.196 239.75 372.177 239.667 372.151L239.744 371.474C239.789 371.487 239.863 371.498 239.968 371.509C240.07 371.52 240.14 371.525 240.179 371.525C240.392 371.525 240.548 371.465 240.648 371.346C240.749 371.229 240.799 371.046 240.799 370.796V365.05C240.799 364.538 240.923 364.146 241.173 363.874C241.422 363.601 241.781 363.465 242.25 363.465C242.358 363.465 242.465 363.473 242.569 363.49C242.674 363.507 242.78 363.528 242.889 363.554L242.787 364.206C242.735 364.193 242.653 364.184 242.54 364.177C242.43 364.171 242.333 364.168 242.25 364.168C242.011 364.168 241.835 364.239 241.722 364.382C241.609 364.525 241.553 364.747 241.553 365.05V370.796Z" fill="#888888"/>
<path d="M185.168 559.415V553.597H188.68V554.222H185.873V556.188H188.498V556.813H185.873V558.79H188.725V559.415H185.168ZM190.131 556.608V555.995H193.631V556.608H190.131ZM190.131 558.29V557.677H193.631V558.29H190.131ZM195.132 559.415V555.052H195.78V555.733H195.837C195.928 555.501 196.074 555.32 196.277 555.191C196.48 555.06 196.723 554.995 197.007 554.995C197.295 554.995 197.535 555.06 197.726 555.191C197.919 555.32 198.07 555.501 198.178 555.733H198.223C198.335 555.508 198.502 555.329 198.726 555.197C198.949 555.062 199.217 554.995 199.53 554.995C199.92 554.995 200.239 555.117 200.487 555.361C200.735 555.604 200.859 555.982 200.859 556.495V559.415H200.189V556.495C200.189 556.173 200.101 555.943 199.925 555.804C199.749 555.666 199.541 555.597 199.303 555.597C198.996 555.597 198.758 555.69 198.59 555.876C198.421 556.059 198.337 556.292 198.337 556.574V559.415H197.655V556.427C197.655 556.179 197.574 555.979 197.413 555.827C197.252 555.674 197.045 555.597 196.791 555.597C196.617 555.597 196.454 555.644 196.303 555.736C196.153 555.829 196.032 555.958 195.939 556.123C195.848 556.286 195.803 556.474 195.803 556.688V559.415H195.132ZM203.858 559.506C203.449 559.506 203.097 559.41 202.801 559.216C202.506 559.023 202.278 558.757 202.119 558.418C201.96 558.079 201.881 557.692 201.881 557.256C201.881 556.813 201.962 556.422 202.125 556.083C202.29 555.742 202.519 555.476 202.813 555.285C203.108 555.091 203.453 554.995 203.847 554.995C204.153 554.995 204.43 555.052 204.676 555.165C204.922 555.279 205.124 555.438 205.281 555.643C205.438 555.847 205.536 556.086 205.574 556.358H204.903C204.852 556.16 204.739 555.983 204.563 555.83C204.388 555.675 204.153 555.597 203.858 555.597C203.597 555.597 203.367 555.665 203.17 555.802C202.975 555.936 202.823 556.126 202.713 556.373C202.605 556.617 202.551 556.904 202.551 557.233C202.551 557.571 202.604 557.864 202.71 558.114C202.818 558.364 202.97 558.558 203.165 558.697C203.362 558.835 203.593 558.904 203.858 558.904C204.032 558.904 204.19 558.874 204.332 558.813C204.474 558.752 204.595 558.665 204.693 558.552C204.792 558.438 204.862 558.302 204.903 558.143H205.574C205.536 558.4 205.442 558.632 205.293 558.839C205.145 559.043 204.949 559.206 204.705 559.327C204.462 559.447 204.18 559.506 203.858 559.506ZM206.338 556.506V556.063L207.668 554.881C207.8 554.764 207.911 554.659 208 554.566C208.089 554.473 208.156 554.383 208.202 554.296C208.247 554.209 208.27 554.116 208.27 554.018C208.27 553.847 208.205 553.712 208.074 553.611C207.943 553.511 207.781 553.461 207.588 553.461C207.384 553.461 207.219 553.516 207.094 553.626C206.969 553.733 206.906 553.876 206.906 554.052H206.315C206.315 553.728 206.436 553.467 206.676 553.27C206.917 553.072 207.224 552.972 207.599 552.972C207.849 552.972 208.069 553.018 208.259 553.108C208.448 553.197 208.596 553.321 208.702 553.478C208.808 553.633 208.861 553.809 208.861 554.006C208.861 554.161 208.83 554.305 208.767 554.438C208.705 554.571 208.607 554.708 208.474 554.85C208.342 554.992 208.171 555.154 207.963 555.336L207.224 555.983V556.006H208.963V556.506H206.338Z" fill="#888888"/>
<path d="M263.91 670.789C263.668 670.789 263.449 670.743 263.252 670.652C263.054 670.559 262.898 670.426 262.782 670.252C262.666 670.076 262.608 669.864 262.608 669.616C262.608 669.397 262.651 669.22 262.737 669.084C262.823 668.946 262.938 668.838 263.082 668.761C263.227 668.683 263.386 668.625 263.56 668.587C263.735 668.547 263.912 668.515 264.089 668.492C264.321 668.462 264.509 668.44 264.654 668.425C264.799 668.408 264.905 668.381 264.972 668.343C265.04 668.305 265.074 668.239 265.074 668.144V668.124C265.074 667.879 265.007 667.688 264.872 667.552C264.74 667.417 264.538 667.349 264.268 667.349C263.988 667.349 263.769 667.41 263.609 667.533C263.45 667.655 263.339 667.786 263.274 667.925L262.717 667.726C262.817 667.494 262.949 667.314 263.115 667.185C263.282 667.054 263.464 666.962 263.662 666.911C263.861 666.858 264.056 666.832 264.248 666.832C264.371 666.832 264.512 666.846 264.671 666.876C264.832 666.904 264.987 666.963 265.136 667.053C265.287 667.142 265.412 667.277 265.511 667.458C265.611 667.639 265.66 667.881 265.66 668.184V670.699H265.074V670.182H265.044C265.004 670.265 264.938 670.354 264.845 670.448C264.752 670.543 264.629 670.623 264.475 670.69C264.32 670.756 264.132 670.789 263.91 670.789ZM264 670.262C264.232 670.262 264.427 670.216 264.586 670.125C264.747 670.034 264.868 669.916 264.949 669.772C265.032 669.628 265.074 669.476 265.074 669.317V668.78C265.049 668.81 264.994 668.838 264.91 668.862C264.827 668.886 264.731 668.906 264.621 668.925C264.513 668.941 264.408 668.956 264.306 668.969C264.204 668.981 264.122 668.991 264.059 668.999C263.907 669.019 263.764 669.051 263.632 669.096C263.501 669.139 263.395 669.205 263.314 669.293C263.234 669.379 263.194 669.496 263.194 669.645C263.194 669.849 263.27 670.003 263.421 670.108C263.573 670.211 263.766 670.262 264 670.262ZM266.542 668.154V667.766L267.705 666.732C267.821 666.629 267.918 666.537 267.996 666.456C268.074 666.375 268.133 666.296 268.173 666.22C268.213 666.144 268.232 666.063 268.232 665.976C268.232 665.827 268.175 665.709 268.061 665.621C267.947 665.533 267.805 665.489 267.636 665.489C267.457 665.489 267.313 665.537 267.203 665.633C267.094 665.728 267.039 665.852 267.039 666.006H266.522C266.522 665.723 266.627 665.495 266.838 665.323C267.048 665.149 267.318 665.062 267.646 665.062C267.865 665.062 268.057 665.101 268.223 665.181C268.388 665.259 268.517 665.367 268.61 665.504C268.703 665.64 268.749 665.794 268.749 665.967C268.749 666.102 268.722 666.228 268.667 666.344C268.613 666.46 268.527 666.58 268.411 666.705C268.295 666.829 268.146 666.971 267.964 667.13L267.318 667.697V667.717H268.839V668.154H266.542ZM271.169 670.351V667.07H271.726V670.351H271.169ZM269.807 668.989V668.432H273.088V668.989H269.807ZM274.371 670.699V665.609H274.958V667.488H275.007C275.051 667.422 275.11 667.337 275.186 667.234C275.264 667.13 275.375 667.037 275.52 666.956C275.665 666.873 275.863 666.832 276.111 666.832C276.433 666.832 276.716 666.912 276.961 667.073C277.207 667.233 277.398 667.461 277.536 667.756C277.673 668.051 277.742 668.399 277.742 668.8C277.742 669.205 277.673 669.555 277.536 669.852C277.398 670.147 277.207 670.375 276.964 670.538C276.72 670.699 276.439 670.779 276.121 670.779C275.876 670.779 275.679 670.738 275.532 670.657C275.384 670.574 275.271 670.481 275.191 670.376C275.112 670.27 275.051 670.182 275.007 670.113H274.938V670.699H274.371ZM274.948 668.79C274.948 669.079 274.99 669.333 275.075 669.554C275.159 669.772 275.283 669.944 275.445 670.068C275.607 670.191 275.806 670.252 276.042 670.252C276.287 670.252 276.491 670.187 276.656 670.058C276.821 669.927 276.946 669.752 277.028 669.531C277.113 669.309 277.155 669.062 277.155 668.79C277.155 668.522 277.114 668.28 277.031 668.065C276.95 667.847 276.826 667.676 276.661 667.55C276.496 667.422 276.29 667.359 276.042 667.359C275.803 667.359 275.602 667.419 275.44 667.54C275.278 667.659 275.155 667.827 275.072 668.042C274.989 668.256 274.948 668.505 274.948 668.79ZM278.45 668.154V667.766L279.614 666.732C279.73 666.629 279.827 666.537 279.904 666.456C279.982 666.375 280.041 666.296 280.081 666.22C280.121 666.144 280.141 666.063 280.141 665.976C280.141 665.827 280.083 665.709 279.969 665.621C279.855 665.533 279.713 665.489 279.544 665.489C279.365 665.489 279.221 665.537 279.112 665.633C279.002 665.728 278.947 665.852 278.947 666.006H278.43C278.43 665.723 278.536 665.495 278.746 665.323C278.957 665.149 279.226 665.062 279.554 665.062C279.773 665.062 279.965 665.101 280.131 665.181C280.296 665.259 280.426 665.367 280.518 665.504C280.611 665.64 280.658 665.794 280.658 665.967C280.658 666.102 280.63 666.228 280.576 666.344C280.521 666.46 280.436 666.58 280.32 666.705C280.204 666.829 280.054 666.971 279.872 667.13L279.226 667.697V667.717H280.747V668.154H278.45ZM281.824 668.243V667.707H284.887V668.243H281.824ZM281.824 669.715V669.178H284.887V669.715H281.824ZM287.751 670.779C287.393 670.779 287.085 670.694 286.826 670.525C286.568 670.356 286.369 670.124 286.23 669.827C286.09 669.53 286.021 669.191 286.021 668.81C286.021 668.422 286.092 668.08 286.235 667.784C286.379 667.485 286.579 667.252 286.836 667.085C287.095 666.916 287.396 666.832 287.741 666.832C288.009 666.832 288.251 666.881 288.467 666.981C288.682 667.08 288.859 667.219 288.996 667.398C289.134 667.577 289.219 667.786 289.252 668.025H288.666C288.621 667.851 288.522 667.697 288.367 667.562C288.215 667.426 288.009 667.359 287.751 667.359C287.522 667.359 287.322 667.418 287.149 667.538C286.979 667.655 286.845 667.822 286.749 668.037C286.655 668.251 286.607 668.502 286.607 668.79C286.607 669.085 286.654 669.342 286.747 669.561C286.841 669.78 286.974 669.95 287.144 670.071C287.317 670.192 287.519 670.252 287.751 670.252C287.903 670.252 288.042 670.226 288.166 670.172C288.29 670.119 288.396 670.043 288.482 669.944C288.568 669.844 288.629 669.725 288.666 669.586H289.252C289.219 669.811 289.137 670.014 289.006 670.195C288.877 670.374 288.705 670.516 288.492 670.622C288.28 670.727 288.033 670.779 287.751 670.779ZM289.921 668.154V667.766L291.084 666.732C291.2 666.629 291.297 666.537 291.375 666.456C291.453 666.375 291.512 666.296 291.552 666.22C291.591 666.144 291.611 666.063 291.611 665.976C291.611 665.827 291.554 665.709 291.44 665.621C291.325 665.533 291.184 665.489 291.015 665.489C290.836 665.489 290.692 665.537 290.582 665.633C290.473 665.728 290.418 665.852 290.418 666.006H289.901C289.901 665.723 290.006 665.495 290.217 665.323C290.427 665.149 290.697 665.062 291.025 665.062C291.243 665.062 291.436 665.101 291.601 665.181C291.767 665.259 291.896 665.367 291.989 665.504C292.082 665.64 292.128 665.794 292.128 665.967C292.128 666.102 292.101 666.228 292.046 666.344C291.992 666.46 291.906 666.58 291.79 666.705C291.674 666.829 291.525 666.971 291.343 667.13L290.697 667.697V667.717H292.218V668.154H289.921Z" fill="#888888"/>
</g>
<g opacity="0.2">
<path d="M471.716 110.061C477.853 110.061 482.828 105.083 482.828 98.9435C482.828 92.8036 477.853 87.8262 471.716 87.8262C465.579 87.8262 460.604 92.8036 460.604 98.9435C460.604 105.083 465.579 110.061 471.716 110.061Z" stroke="#999999" stroke-width="0.75"/>
<path d="M527.278 187.881H505.053V210.116H527.278V187.881Z" stroke="#999999" stroke-width="0.75"/>
<path d="M493.941 321.288H510.609L502.275 304.612L493.941 321.288Z" stroke="#999999" stroke-width="0.75"/>
<path d="M460.604 499.164L463.382 504.723H468.938L464.493 508.614L466.16 514.172L460.604 510.281L455.048 514.172L456.715 508.614L452.27 504.723H457.826L460.604 499.164Z" stroke="#999999" stroke-width="0.75"/>
<path d="M516.165 610.337L527.278 604.778L538.39 610.337V621.454L527.278 627.012L516.165 621.454V610.337Z" stroke="#999999" stroke-width="0.75"/>
</g>
<g opacity="0.4">
<path d="M954.545 207.892H931.209C929.981 207.892 928.986 208.888 928.986 210.116V244.579C928.986 245.807 929.981 246.803 931.209 246.803H954.545C955.772 246.803 956.767 245.807 956.767 244.579V210.116C956.767 208.888 955.772 207.892 954.545 207.892Z" stroke="#666666"/>
<path d="M953.433 210.672H932.32C932.013 210.672 931.764 210.92 931.764 211.227V216.786C931.764 217.093 932.013 217.342 932.32 217.342H953.433C953.74 217.342 953.989 217.093 953.989 216.786V211.227C953.989 210.92 953.74 210.672 953.433 210.672Z" stroke="#666666"/>
<path d="M937.321 223.457C938.241 223.457 938.987 222.71 938.987 221.789C938.987 220.868 938.241 220.121 937.321 220.121C936.4 220.121 935.654 220.868 935.654 221.789C935.654 222.71 936.4 223.457 937.321 223.457Z" stroke="#666666"/>
<path d="M942.877 223.457C943.797 223.457 944.544 222.71 944.544 221.789C944.544 220.868 943.797 220.121 942.877 220.121C941.956 220.121 941.21 220.868 941.21 221.789C941.21 222.71 941.956 223.457 942.877 223.457Z" stroke="#666666"/>
<path d="M948.433 223.457C949.353 223.457 950.1 222.71 950.1 221.789C950.1 220.868 949.353 220.121 948.433 220.121C947.512 220.121 946.766 220.868 946.766 221.789C946.766 222.71 947.512 223.457 948.433 223.457Z" stroke="#666666"/>
<path d="M937.321 229.015C938.241 229.015 938.987 228.269 938.987 227.348C938.987 226.427 938.241 225.68 937.321 225.68C936.4 225.68 935.654 226.427 935.654 227.348C935.654 228.269 936.4 229.015 937.321 229.015Z" stroke="#666666"/>
<path d="M942.877 229.015C943.797 229.015 944.544 228.269 944.544 227.348C944.544 226.427 943.797 225.68 942.877 225.68C941.956 225.68 941.21 226.427 941.21 227.348C941.21 228.269 941.956 229.015 942.877 229.015Z" stroke="#666666"/>
<path d="M948.433 229.015C949.353 229.015 950.1 228.269 950.1 227.348C950.1 226.427 949.353 225.68 948.433 225.68C947.512 225.68 946.766 226.427 946.766 227.348C946.766 228.269 947.512 229.015 948.433 229.015Z" stroke="#666666"/>
<path d="M978.992 74.4855L1001.22 52.251" stroke="#666666"/>
<path d="M978.992 74.4855L981.77 71.7062L984.548 74.4855L981.77 77.2648L978.992 74.4855Z" stroke="#666666"/>
<path d="M981.77 71.7061L1001.22 52.251" stroke="#666666"/>
<path d="M944.544 430.237H902.317C901.703 430.237 901.206 430.735 901.206 431.349V435.796C901.206 436.41 901.703 436.908 902.317 436.908H944.544C945.157 436.908 945.655 436.41 945.655 435.796V431.349C945.655 430.735 945.157 430.237 944.544 430.237Z" stroke="#666666"/>
<path d="M906.762 430.237V433.572" stroke="#666666"/>
<path d="M912.318 430.237V436.908" stroke="#666666"/>
<path d="M917.874 430.237V433.572" stroke="#666666"/>
<path d="M923.43 430.237V436.908" stroke="#666666"/>
<path d="M928.986 430.237V433.572" stroke="#666666"/>
<path d="M934.542 430.237V436.908" stroke="#666666"/>
<path d="M940.099 430.237V433.572" stroke="#666666"/>
<path d="M978.992 605.334C983.594 605.334 987.326 601.601 987.326 596.996C987.326 592.391 983.594 588.658 978.992 588.658C974.389 588.658 970.657 592.391 970.657 596.996C970.657 601.601 974.389 605.334 978.992 605.334Z" stroke="#666666"/>
<path d="M980.658 605.334H977.325C976.711 605.334 976.214 605.831 976.214 606.445V608.669C976.214 609.283 976.711 609.781 977.325 609.781H980.658C981.272 609.781 981.77 609.283 981.77 608.669V606.445C981.77 605.831 981.272 605.334 980.658 605.334Z" stroke="#666666"/>
<path d="M982.881 608.113H975.102V609.781H982.881V608.113Z" stroke="#666666"/>
</g>
<g opacity="0.3">
<path d="M733.41 174.541H688.961V207.892H733.41V174.541Z" stroke="#777777"/>
<path d="M688.961 191.217H733.41" stroke="#777777"/>
<path d="M700.073 174.541V207.892" stroke="#777777"/>
<path d="M700.073 191.217L705.63 180.099L711.186 185.658L716.742 174.541" stroke="#777777"/>
<path d="M666.737 574.761C666.737 568.864 669.078 563.209 673.246 559.039C677.414 554.869 683.067 552.527 688.961 552.527C694.856 552.527 700.508 554.869 704.676 559.039C708.844 563.209 711.186 568.864 711.186 574.761" stroke="#777777"/>
<path d="M688.961 574.761V563.644" stroke="#777777"/>
<path d="M677.849 569.203L680.627 566.423" stroke="#777777"/>
<path d="M700.073 569.203L697.295 566.423" stroke="#777777"/>
<path d="M744.523 74.4855C750.66 74.4855 755.635 69.5081 755.635 63.3682C755.635 57.2283 750.66 52.251 744.523 52.251C738.385 52.251 733.41 57.2283 733.41 63.3682C733.41 69.5081 738.385 74.4855 744.523 74.4855Z" stroke="#777777"/>
<path d="M744.523 63.3682V55.0303" stroke="#777777"/>
<path d="M744.523 63.3682H750.079" stroke="#777777"/>
<path d="M744.523 64.4799C745.136 64.4799 745.634 63.9822 745.634 63.3682C745.634 62.7542 745.136 62.2565 744.523 62.2565C743.909 62.2565 743.411 62.7542 743.411 63.3682C743.411 63.9822 743.909 64.4799 744.523 64.4799Z" fill="#777777" stroke="#777777"/>
<path d="M822.309 741.52C828.446 741.52 833.421 736.543 833.421 730.403C833.421 724.263 828.446 719.285 822.309 719.285C816.171 719.285 811.196 724.263 811.196 730.403C811.196 736.543 816.171 741.52 822.309 741.52Z" stroke="#777777"/>
<path d="M822.308 737.073C825.991 737.073 828.976 734.087 828.976 730.403C828.976 726.719 825.991 723.732 822.308 723.732C818.626 723.732 815.641 726.719 815.641 730.403C815.641 734.087 818.626 737.073 822.308 737.073Z" stroke="#777777"/>
<path d="M825.087 716.506H819.53V722.065H825.087V716.506Z" stroke="#777777"/>
<path d="M825.087 738.741H819.53V744.299H825.087V738.741Z" stroke="#777777"/>
<path d="M813.974 727.623H808.418V733.182H813.974V727.623Z" stroke="#777777"/>
<path d="M836.199 727.623H830.643V733.182H836.199V727.623Z" stroke="#777777"/>
</g>
<g opacity="0.2">
<path d="M695.629 269.037C700.538 269.037 704.518 265.055 704.518 260.143C704.518 255.232 700.538 251.25 695.629 251.25C690.719 251.25 686.739 255.232 686.739 260.143C686.739 265.055 690.719 269.037 695.629 269.037Z" stroke="#999999" stroke-width="0.75"/>
<path d="M767.858 293.495H751.19V310.171H767.858V293.495Z" stroke="#999999" stroke-width="0.75"/>
<path d="M695.629 371.316C688.22 363.904 680.812 363.904 673.404 371.316C680.812 378.727 688.22 378.727 695.629 371.316ZM695.629 371.316C703.037 378.727 710.445 378.727 717.853 371.316C710.445 363.904 703.037 363.904 695.629 371.316Z" stroke="#999999" stroke-width="0.75"/>
</g>
<g opacity="0.05">
<path d="M506.72 326.847C512.857 326.847 517.832 321.87 517.832 315.73C517.832 309.59 512.857 304.612 506.72 304.612C500.583 304.612 495.608 309.59 495.608 315.73C495.608 321.87 500.583 326.847 506.72 326.847Z" stroke="#DDDDDD" stroke-width="0.5" stroke-dasharray="2 2"/>
</g>
</svg>