<svg width="400" height="400" viewBox="0 0 400 400" fill="none" xmlns="http://www.w3.org/2000/svg">
<path d="M75 0C47.386 0 25 22.386 25 50V350C25 377.614 47.386 400 75 400H175C300 400 375 325 375 200C375 75 300 0 175 0H75Z" fill="white"/>
<path d="M262 89C270.519 89 276 97.266 276 105.5C276 113.734 270.519 122 262 122H152C143.481 122 138 113.734 138 105.5C138 97.266 143.481 89 152 89H262Z" fill="#FF392B" stroke="#FF392B" stroke-width="8"/>
<path d="M305.5 164C314.613 164 322 171.387 322 180.5C322 189.613 314.613 197 305.5 197H168C158.887 197 151.5 189.613 151.5 180.5C151.5 171.387 158.887 164 168 164H305.5Z" fill="#FF392B" stroke="#FF392B" stroke-width="8"/>
<path d="M278.615 239C287.456 239 294 246.747 294 255.5C294 264.253 287.456 272 278.615 272H153.385C144.544 272 138 264.253 138 255.5C138 246.747 144.544 239 153.385 239H278.615Z" fill="#FF392B" stroke="#FF392B" stroke-width="8"/>
<path d="M66 72C66 60.402 75.402 51 87 51C98.598 51 108 60.402 108 72V328C108 339.598 98.598 349 87 349C75.402 349 66 339.598 66 328V72Z" fill="#FF392B"/>
<path d="M84.5 312C74.2827 312 66 320.283 66 330.5C66 340.717 74.2827 349 84.5 349H207.5C217.717 349 226 340.717 226 330.5C226 320.283 217.717 312 207.5 312H84.5Z" fill="#FF392B"/>
</svg>
